<svg width="16" height="16" viewBox="0 0 32 32" fill="none" xmlns="http://www.w3.org/2000/svg">
<path d="M21.3336 19.9999C21.1581 20.0009 20.9842 19.9673 20.8217 19.9009C20.6593 19.8346 20.5115 19.7368 20.3869 19.6133L16.0002 15.2133L11.6136 19.6133C11.3625 19.8643 11.022 20.0054 10.6669 20.0054C10.3118 20.0054 9.97132 19.8643 9.72025 19.6133C9.46918 19.3622 9.32812 19.0217 9.32812 18.6666C9.32812 18.4908 9.36275 18.3167 9.43003 18.1543C9.49732 17.9918 9.59593 17.8442 9.72025 17.7199L15.0536 12.3866C15.1775 12.2616 15.325 12.1624 15.4875 12.0947C15.65 12.027 15.8242 11.9922 16.0002 11.9922C16.1763 11.9922 16.3505 12.027 16.513 12.0947C16.6755 12.1624 16.823 12.2616 16.9469 12.3866L22.2802 17.7199C22.4052 17.8439 22.5044 17.9913 22.5721 18.1538C22.6398 18.3163 22.6746 18.4906 22.6746 18.6666C22.6746 18.8426 22.6398 19.0169 22.5721 19.1794C22.5044 19.3418 22.4052 19.4893 22.2802 19.6133C22.1557 19.7368 22.0079 19.8346 21.8455 19.9009C21.683 19.9673 21.5091 20.0009 21.3336 19.9999Z" fill="#0C5273"/>
</svg>
