<svg width="24" height="24" viewBox="0 0 24 24" fill="none" xmlns="http://www.w3.org/2000/svg">
<path d="M13.408 12.0002L19.708 5.71019C19.8963 5.52188 20.0021 5.26649 20.0021 5.00019C20.0021 4.73388 19.8963 4.47849 19.708 4.29019C19.5197 4.10188 19.2643 3.99609 18.998 3.99609C18.7317 3.99609 18.4763 4.10188 18.288 4.29019L11.998 10.5902L5.70799 4.29019C5.51968 4.10188 5.26429 3.99609 4.99799 3.99609C4.73168 3.99609 4.47629 4.10188 4.28799 4.29019C4.09968 4.47849 3.99389 4.73388 3.99389 5.00019C3.99389 5.26649 4.09968 5.52188 4.28799 5.71019L10.588 12.0002L4.28799 18.2902C4.19426 18.3831 4.11986 18.4937 4.06909 18.6156C4.01833 18.7375 3.99219 18.8682 3.99219 19.0002C3.99219 19.1322 4.01833 19.2629 4.06909 19.3848C4.11986 19.5066 4.19426 19.6172 4.28799 19.7102C4.38095 19.8039 4.49155 19.8783 4.61341 19.9291C4.73527 19.9798 4.86597 20.006 4.99799 20.006C5.13 20.006 5.2607 19.9798 5.38256 19.9291C5.50442 19.8783 5.61502 19.8039 5.70799 19.7102L11.998 13.4102L18.288 19.7102C18.3809 19.8039 18.4915 19.8783 18.6134 19.9291C18.7353 19.9798 18.866 20.006 18.998 20.006C19.13 20.006 19.2607 19.9798 19.3826 19.9291C19.5044 19.8783 19.615 19.8039 19.708 19.7102C19.8017 19.6172 19.8761 19.5066 19.9269 19.3848C19.9776 19.2629 20.0038 19.1322 20.0038 19.0002C20.0038 18.8682 19.9776 18.7375 19.9269 18.6156C19.8761 18.4937 19.8017 18.3831 19.708 18.2902L13.408 12.0002Z" fill="#0078AD"/>
</svg>
