<svg width="20" height="20" viewBox="0 0 20 20" fill="none" xmlns="http://www.w3.org/2000/svg">
<path d="M10 6C9.20887 6 8.43552 6.2346 7.77772 6.67412C7.11992 7.11365 6.60723 7.73836 6.30448 8.46927C6.00173 9.20017 5.92252 10.0044 6.07686 10.7804C6.2312 11.5563 6.61216 12.269 7.17157 12.8284C7.73098 13.3878 8.44372 13.7688 9.21964 13.9231C9.99556 14.0775 10.7998 13.9983 11.5307 13.6955C12.2616 13.3928 12.8864 12.8801 13.3259 12.2223C13.7654 11.5645 14 10.7911 14 10C14 8.93913 13.5786 7.92172 12.8284 7.17157C12.0783 6.42143 11.0609 6 10 6ZM19 9H17.93C17.7068 7.23998 16.9049 5.60408 15.6504 4.34959C14.3959 3.0951 12.76 2.29319 11 2.07V2V1C11 0.734784 10.8946 0.48043 10.7071 0.292893C10.5196 0.105357 10.2652 0 10 0C9.73478 0 9.48043 0.105357 9.29289 0.292893C9.10536 0.48043 9 0.734784 9 1V2C9 2 9 2 9 2.07C7.23998 2.29319 5.60408 3.0951 4.34959 4.34959C3.0951 5.60408 2.29319 7.23998 2.07 9H1C0.734784 9 0.48043 9.10536 0.292893 9.29289C0.105357 9.48043 0 9.73478 0 10C0 10.2652 0.105357 10.5196 0.292893 10.7071C0.48043 10.8946 0.734784 11 1 11H2.07C2.29319 12.76 3.0951 14.3959 4.34959 15.6504C5.60408 16.9049 7.23998 17.7068 9 17.93V18V19C9 19.2652 9.10536 19.5196 9.29289 19.7071C9.48043 19.8946 9.73478 20 10 20C10.2652 20 10.5196 19.8946 10.7071 19.7071C10.8946 19.5196 11 19.2652 11 19V18C11 18 11 18 11 17.93C12.76 17.7068 14.3959 16.9049 15.6504 15.6504C16.9049 14.3959 17.7068 12.76 17.93 11H19C19.2652 11 19.5196 10.8946 19.7071 10.7071C19.8946 10.5196 20 10.2652 20 10C20 9.73478 19.8946 9.48043 19.7071 9.29289C19.5196 9.10536 19.2652 9 19 9ZM10 16C8.81331 16 7.65327 15.6481 6.66658 14.9888C5.67988 14.3295 4.91085 13.3925 4.45672 12.2961C4.0026 11.1997 3.88378 9.99334 4.11529 8.82946C4.3468 7.66557 4.91824 6.59647 5.75736 5.75736C6.59647 4.91824 7.66557 4.3468 8.82946 4.11529C9.99334 3.88378 11.1997 4.0026 12.2961 4.45672C13.3925 4.91085 14.3295 5.67988 14.9888 6.66658C15.6481 7.65327 16 8.81331 16 10C16 11.5913 15.3679 13.1174 14.2426 14.2426C13.1174 15.3679 11.5913 16 10 16Z" fill="#0C5273"/>
</svg>
