<svg width="32" height="32" viewBox="0 0 32 32" fill="none" xmlns="http://www.w3.org/2000/svg">
<rect width="32" height="32" rx="16" fill="#E8E8FC"/>
<circle cx="16" cy="16" r="16" fill="#FCE6E7"/>
<path d="M14.78 14.84C15.5508 15.0561 16.3652 15.0631 17.1396 14.8604C17.914 14.6577 18.6204 14.2525 19.1865 13.6864C19.7525 13.1204 20.1577 12.4139 20.3604 11.6395C20.5631 10.8651 20.5561 10.0507 20.34 9.27998C20.1352 8.534 19.7399 7.85412 19.1929 7.30712C18.6459 6.76011 17.966 6.36479 17.22 6.15998C16.4492 5.94389 15.6348 5.93685 14.8604 6.13957C14.086 6.34229 13.3796 6.74747 12.8135 7.3135C12.2475 7.87953 11.8423 8.58602 11.6396 9.36041C11.4369 10.1348 11.4439 10.9492 11.66 11.72C11.8648 12.466 12.2601 13.1458 12.8071 13.6928C13.3541 14.2398 14.034 14.6352 14.78 14.84ZM16 16C13.8783 16 11.8434 16.8428 10.3431 18.3431C8.84285 19.8434 8 21.8782 8 24C8 24.5304 8.21071 25.0391 8.58579 25.4142C8.96086 25.7893 9.46957 26 10 26H22C22.5304 26 23.0391 25.7893 23.4142 25.4142C23.7893 25.0391 24 24.5304 24 24C24 21.8782 23.1571 19.8434 21.6569 18.3431C20.1566 16.8428 18.1217 16 16 16Z" fill="#A80000"/>
</svg>
