<svg width="12" height="13" viewBox="0 0 12 13" fill="none" xmlns="http://www.w3.org/2000/svg">
<path d="M10.6848 5.01021C10.6279 4.84388 10.5282 4.69656 10.3952 4.5825C10.2623 4.46845 10.1009 4.39716 9.9252 4.36865L7.80773 4.04549L6.85819 2.00199C6.78223 1.84041 6.65879 1.7026 6.50687 1.6028C6.35494 1.50775 6.17928 1.45547 5.99886 1.45547C5.81845 1.45547 5.64279 1.50775 5.49086 1.6028C5.33894 1.69784 5.2155 1.83566 5.13953 2.00199L4.19 4.04549L2.05354 4.36865C1.88262 4.39716 1.71645 4.46845 1.58352 4.5825C1.45058 4.69656 1.35088 4.84388 1.29391 5.01021C1.24169 5.17179 1.23694 5.34763 1.27492 5.51396C1.3129 5.68029 1.39836 5.83711 1.51705 5.96067L3.07904 7.56696L2.70872 9.84332C2.68023 10.0192 2.70397 10.1997 2.77044 10.3613C2.83691 10.5229 2.95085 10.6655 3.09803 10.77C3.2547 10.8888 3.44936 10.9554 3.64876 10.9601C3.81493 10.9601 3.97635 10.9221 4.12353 10.8413L6.01785 9.7958L7.91218 10.8413C8.05461 10.9221 8.22078 10.9649 8.38695 10.9601C8.58635 10.9601 8.77626 10.8983 8.93768 10.7843C9.08011 10.6797 9.19405 10.5419 9.26527 10.3756C9.33174 10.214 9.35548 10.0334 9.32699 9.85758L8.95667 7.58122L10.5187 5.97493C10.6326 5.84662 10.7038 5.68504 10.7371 5.51396C10.7655 5.34287 10.7465 5.16704 10.6848 5.01021Z" fill="#E0E0E0"/>
</svg>
