<svg width="22" height="20" viewBox="0 0 22 20" fill="none" xmlns="http://www.w3.org/2000/svg">
<path d="M20.4701 7.31017L12.8501 0.700168C12.3389 0.250182 11.6812 0.00195312 11.0001 0.00195312C10.3191 0.00195312 9.66136 0.250182 9.15013 0.700168L1.53013 7.31017C1.2976 7.5094 1.1302 7.77382 1.04958 8.06922C0.968967 8.36462 0.978842 8.67742 1.07793 8.96715C1.17702 9.25688 1.36077 9.51021 1.6054 9.69437C1.85003 9.87854 2.1443 9.98506 2.45013 10.0002H3.00013V17.0002C3.00013 17.7958 3.3162 18.5589 3.87881 19.1215C4.44142 19.6841 5.20448 20.0002 6.00013 20.0002H9.00013V14.0002H13.0001V20.0002H16.0001C16.7958 20.0002 17.5588 19.6841 18.1214 19.1215C18.6841 18.5589 19.0001 17.7958 19.0001 17.0002V10.0002H19.5501C19.856 9.98506 20.1502 9.87854 20.3949 9.69437C20.6395 9.51021 20.8232 9.25688 20.9223 8.96715C21.0214 8.67742 21.0313 8.36462 20.9507 8.06922C20.8701 7.77382 20.7027 7.5094 20.4701 7.31017Z" fill="#0078AD"/>
</svg>
