<svg width="24" height="25" viewBox="0 0 24 25" fill="none" xmlns="http://www.w3.org/2000/svg">
<path d="M12 2.21521C10.0222 2.21521 8.08879 2.8017 6.4443 3.90051C4.79981 4.99933 3.51809 6.56111 2.76121 8.38838C2.00433 10.2156 1.8063 12.2263 2.19215 14.1661C2.578 16.1059 3.53041 17.8878 4.92894 19.2863C6.32746 20.6848 8.10929 21.6372 10.0491 22.0231C11.9889 22.4089 13.9996 22.2109 15.8268 21.454C17.6541 20.6971 19.2159 19.4154 20.3147 17.7709C21.4135 16.1264 22 14.193 22 12.2152C22 10.902 21.7413 9.60163 21.2388 8.38838C20.7363 7.17512 19.9997 6.07273 19.0711 5.14414C18.1425 4.21556 17.0401 3.47896 15.8268 2.97641C14.6136 2.47387 13.3132 2.21521 12 2.21521ZM14.21 15.5052C14.3037 15.5982 14.3781 15.7088 14.4289 15.8306C14.4797 15.9525 14.5058 16.0832 14.5058 16.2152C14.5058 16.3472 14.4797 16.4779 14.4289 16.5998C14.3781 16.7216 14.3037 16.8322 14.21 16.9252C14.117 17.0189 14.0064 17.0933 13.8846 17.1441C13.7627 17.1949 13.632 17.221 13.5 17.221C13.368 17.221 13.2373 17.1949 13.1154 17.1441C12.9936 17.0933 12.883 17.0189 12.79 16.9252L8.79 12.9252C8.69628 12.8322 8.62188 12.7216 8.57111 12.5998C8.52034 12.4779 8.49421 12.3472 8.49421 12.2152C8.49421 12.0832 8.52034 11.9525 8.57111 11.8306C8.62188 11.7088 8.69628 11.5982 8.79 11.5052L12.79 7.50521C12.8832 7.41197 12.9939 7.33801 13.1158 7.28755C13.2376 7.23709 13.3681 7.21112 13.5 7.21112C13.6319 7.21112 13.7624 7.23709 13.8843 7.28755C14.0061 7.33801 14.1168 7.41197 14.21 7.50521C14.3032 7.59845 14.3772 7.70914 14.4277 7.83096C14.4781 7.95278 14.5041 8.08335 14.5041 8.21521C14.5041 8.34707 14.4781 8.47764 14.4277 8.59946C14.3772 8.72128 14.3032 8.83197 14.21 8.92521L10.91 12.2152L14.21 15.5052Z" fill="#B5B5B5"/>
</svg>
