<svg width="24" height="25" viewBox="0 0 24 25" fill="none" xmlns="http://www.w3.org/2000/svg">
<path d="M12 2.21521C10.0222 2.21521 8.08879 2.8017 6.4443 3.90051C4.79981 4.99933 3.51809 6.56111 2.76121 8.38838C2.00433 10.2156 1.8063 12.2263 2.19215 14.1661C2.578 16.1059 3.53041 17.8878 4.92894 19.2863C6.32746 20.6848 8.10929 21.6372 10.0491 22.0231C11.9889 22.4089 13.9996 22.2109 15.8268 21.454C17.6541 20.6971 19.2159 19.4154 20.3147 17.7709C21.4135 16.1264 22 14.193 22 12.2152C22 10.902 21.7413 9.60163 21.2388 8.38838C20.7363 7.17512 19.9997 6.07273 19.0711 5.14414C18.1425 4.21556 17.0401 3.47896 15.8268 2.97641C14.6136 2.47387 13.3132 2.21521 12 2.21521ZM15.21 12.9252L11.21 16.9252C11.117 17.0189 11.0064 17.0933 10.8846 17.1441C10.7627 17.1949 10.632 17.221 10.5 17.221C10.368 17.221 10.2373 17.1949 10.1154 17.1441C9.99357 17.0933 9.88297 17.0189 9.79 16.9252C9.69628 16.8322 9.62188 16.7216 9.57111 16.5998C9.52034 16.4779 9.49421 16.3472 9.49421 16.2152C9.49421 16.0832 9.52034 15.9525 9.57111 15.8306C9.62188 15.7088 9.69628 15.5982 9.79 15.5052L13.09 12.2152L9.79 8.92521C9.69677 8.83197 9.6228 8.72128 9.57234 8.59946C9.52188 8.47764 9.49591 8.34707 9.49591 8.21521C9.49591 8.08335 9.52188 7.95278 9.57234 7.83096C9.6228 7.70914 9.69677 7.59845 9.79 7.50521C9.88324 7.41197 9.99393 7.33801 10.1158 7.28755C10.2376 7.23709 10.3681 7.21112 10.5 7.21112C10.6319 7.21112 10.7624 7.23709 10.8843 7.28755C11.0061 7.33801 11.1168 7.41197 11.21 7.50521L15.21 11.5052C15.3037 11.5982 15.3781 11.7088 15.4289 11.8306C15.4797 11.9525 15.5058 12.0832 15.5058 12.2152C15.5058 12.3472 15.4797 12.4779 15.4289 12.5998C15.3781 12.7216 15.3037 12.8322 15.21 12.9252Z" fill="#B5B5B5"/>
</svg>
