<svg width="16" height="16" viewBox="0 0 16 16" fill="none" xmlns="http://www.w3.org/2000/svg">
<path d="M8 5.00098C6.34 5.00098 5 6.34098 5 8.00098C5 9.66098 6.34 11.001 8 11.001C9.66 11.001 11 9.66098 11 8.00098C11 6.34098 9.66 5.00098 8 5.00098ZM12 2.00098H4C2.9 2.00098 2 2.90098 2 4.00098V12.001C2 13.101 2.9 14.001 4 14.001H12C13.1 14.001 14 13.101 14 12.001V4.00098C14 2.90098 13.1 2.00098 12 2.00098ZM12.6667 12.001C12.6667 12.3676 12.3667 12.6676 12 12.6676H4C3.63333 12.6676 3.33333 12.3676 3.33333 12.001V4.00098C3.33333 3.63431 3.63333 3.33431 4 3.33431H12C12.3667 3.33431 12.6667 3.63431 12.6667 4.00098V12.001Z" fill="#5ACD94"/>
</svg>