<svg width="16" height="21" viewBox="0 0 16 21" fill="none" xmlns="http://www.w3.org/2000/svg">
<path d="M8 1.00019C5.93261 0.951789 3.93021 1.72425 2.43094 3.14855C0.931675 4.57286 0.0576113 6.53304 0 8.60019C0 13.6802 5.91 19.7402 6.59 20.4102C6.96473 20.7827 7.47163 20.9918 8 20.9918C8.52837 20.9918 9.03527 20.7827 9.41 20.4102C10.09 19.7402 16 13.6802 16 8.60019C15.9424 6.53304 15.0683 4.57286 13.5691 3.14855C12.0698 1.72425 10.0674 0.951789 8 1.00019ZM8 12.0002C7.40666 12.0002 6.82664 11.8242 6.33329 11.4946C5.83994 11.165 5.45542 10.6964 5.22836 10.1482C5.0013 9.60006 4.94189 8.99686 5.05764 8.41492C5.1734 7.83298 5.45912 7.29843 5.87868 6.87887C6.29824 6.45931 6.83279 6.17359 7.41473 6.05784C7.99667 5.94208 8.59987 6.00149 9.14805 6.22855C9.69623 6.45562 10.1648 6.84013 10.4944 7.33348C10.8241 7.82683 11 8.40685 11 9.00019C11 9.79584 10.6839 10.5589 10.1213 11.1215C9.55871 11.6841 8.79565 12.0002 8 12.0002Z" fill="#0C5273"/>
</svg>
