<svg width="20" height="14" viewBox="0 0 20 14" fill="none" xmlns="http://www.w3.org/2000/svg">
<path d="M17 0H3C2.20435 0 1.44129 0.316071 0.87868 0.87868C0.316071 1.44129 0 2.20435 0 3V11C0 11.7956 0.316071 12.5587 0.87868 13.1213C1.44129 13.6839 2.20435 14 3 14H17C17.7956 14 18.5587 13.6839 19.1213 13.1213C19.6839 12.5587 20 11.7956 20 11V3C20 2.20435 19.6839 1.44129 19.1213 0.87868C18.5587 0.316071 17.7956 0 17 0ZM7.25 3C7.49723 3 7.7389 3.07331 7.94446 3.21066C8.15002 3.34801 8.31024 3.54324 8.40485 3.77165C8.49946 4.00005 8.52421 4.25139 8.47598 4.49386C8.42775 4.73634 8.3087 4.95907 8.13388 5.13388C7.95907 5.3087 7.73634 5.42775 7.49386 5.47598C7.25139 5.52421 7.00005 5.49946 6.77165 5.40485C6.54324 5.31024 6.34801 5.15002 6.21066 4.94446C6.07331 4.7389 6 4.49723 6 4.25C6 3.91848 6.1317 3.60054 6.36612 3.36612C6.60054 3.1317 6.91848 3 7.25 3ZM12.75 11C12.5028 11 12.2611 10.9267 12.0555 10.7893C11.85 10.652 11.6898 10.4568 11.5952 10.2284C11.5005 9.99995 11.4758 9.74861 11.524 9.50614C11.5722 9.26366 11.6913 9.04093 11.8661 8.86612C12.0409 8.6913 12.2637 8.57225 12.5061 8.52402C12.7486 8.47579 12.9999 8.50054 13.2284 8.59515C13.4568 8.68976 13.652 8.84998 13.7893 9.05554C13.9267 9.2611 14 9.50277 14 9.75C14 10.0815 13.8683 10.3995 13.6339 10.6339C13.3995 10.8683 13.0815 11 12.75 11ZM13.75 4.71L7.75 10.71C7.65704 10.8037 7.54644 10.8781 7.42458 10.9289C7.30272 10.9797 7.17201 11.0058 7.04 11.0058C6.90799 11.0058 6.77728 10.9797 6.65542 10.9289C6.53356 10.8781 6.42296 10.8037 6.33 10.71C6.23627 10.617 6.16188 10.5064 6.11111 10.3846C6.06034 10.2627 6.0342 10.132 6.0342 10C6.0342 9.86799 6.06034 9.73728 6.11111 9.61542C6.16188 9.49356 6.23627 9.38296 6.33 9.29L12.33 3.29C12.5183 3.1017 12.7737 2.99591 13.04 2.99591C13.3063 2.99591 13.5617 3.1017 13.75 3.29C13.9383 3.4783 14.0441 3.7337 14.0441 4C14.0441 4.2663 13.9383 4.5217 13.75 4.71V4.71Z" fill="#0078AD"/>
</svg>
