<svg width="20" height="15" viewBox="0 0 20 15" fill="none" xmlns="http://www.w3.org/2000/svg">
<path d="M1.61004 1.92C1.73403 1.97038 1.86623 1.9975 2.00004 2H18C18.1339 1.9975 18.2661 1.97038 18.39 1.92C18.6287 1.81873 18.8188 1.6287 18.92 1.39C18.9723 1.26662 18.9992 1.13399 18.9992 1C18.9992 0.866008 18.9723 0.733382 18.92 0.61C18.869 0.495024 18.7979 0.390054 18.71 0.3C18.62 0.21216 18.515 0.14105 18.4 0.0900002C18.2736 0.034968 18.1379 0.0044277 18 0H2.00004C1.86623 0.00249808 1.73403 0.0296169 1.61004 0.0799999C1.49507 0.13105 1.3901 0.202159 1.30004 0.29C1.2122 0.380053 1.14109 0.485024 1.09004 0.6C1.03779 0.723382 1.01086 0.856008 1.01086 0.99C1.01086 1.12399 1.03779 1.25662 1.09004 1.38C1.18679 1.62062 1.37324 1.81424 1.61004 1.92ZM8.39004 12.08C8.26606 12.0296 8.13385 12.0025 8.00004 12H2.00004C1.86623 12.0025 1.73403 12.0296 1.61004 12.08C1.37134 12.1813 1.18131 12.3713 1.08004 12.61C1.02779 12.7334 1.00086 12.866 1.00086 13C1.00086 13.134 1.02779 13.2666 1.08004 13.39C1.18131 13.6287 1.37134 13.8187 1.61004 13.92C1.73403 13.9704 1.86623 13.9975 2.00004 14H8.00004C8.13385 13.9975 8.26606 13.9704 8.39004 13.92C8.62874 13.8187 8.81877 13.6287 8.92004 13.39C8.9723 13.2666 8.99923 13.134 8.99923 13C8.99923 12.866 8.9723 12.7334 8.92004 12.61C8.81877 12.3713 8.62874 12.1813 8.39004 12.08ZM8.71004 6.29C8.6166 6.19732 8.50579 6.12399 8.38395 6.07423C8.26211 6.02446 8.13165 5.99924 8.00004 6H2.00004C1.73483 6 1.48047 6.10536 1.29294 6.29289C1.1054 6.48043 1.00004 6.73478 1.00004 7C0.990546 7.08641 0.990546 7.17359 1.00004 7.26C0.995499 7.29987 0.995499 7.34013 1.00004 7.38C1.0798 7.57578 1.21954 7.74124 1.39921 7.85264C1.57887 7.96403 1.78922 8.01562 2.00004 8H8.00004C8.19747 7.99901 8.39018 7.93961 8.5539 7.82928C8.71762 7.71895 8.84502 7.56262 8.92004 7.38C8.92458 7.34013 8.92458 7.29987 8.92004 7.26C8.95656 7.17668 8.9834 7.08944 9.00004 7C9.0008 6.86839 8.97558 6.73793 8.92581 6.61609C8.87605 6.49426 8.80272 6.38344 8.71004 6.29ZM17.29 7.79L13.5 11.59L11.71 9.79C11.6168 9.69676 11.5061 9.6228 11.3843 9.57234C11.2625 9.52188 11.1319 9.49591 11 9.49591C10.8682 9.49591 10.7376 9.52188 10.6158 9.57234C10.494 9.6228 10.3833 9.69676 10.29 9.79C10.1968 9.88324 10.1228 9.99393 10.0724 10.1158C10.0219 10.2376 9.99595 10.3681 9.99595 10.5C9.99595 10.6319 10.0219 10.7624 10.0724 10.8842C10.1228 11.0061 10.1968 11.1168 10.29 11.21L12.79 13.71C12.883 13.8037 12.9936 13.8781 13.1155 13.9289C13.2373 13.9797 13.368 14.0058 13.5 14.0058C13.6321 14.0058 13.7628 13.9797 13.8846 13.9289C14.0065 13.8781 14.1171 13.8037 14.21 13.71L18.71 9.21C18.8033 9.11676 18.8772 9.00607 18.9277 8.88425C18.9782 8.76243 19.0041 8.63186 19.0041 8.5C19.0041 8.36814 18.9782 8.23757 18.9277 8.11575C18.8772 7.99393 18.8033 7.88324 18.71 7.79C18.6168 7.69676 18.5061 7.6228 18.3843 7.57234C18.2625 7.52188 18.1319 7.49591 18 7.49591C17.8682 7.49591 17.7376 7.52188 17.6158 7.57234C17.494 7.6228 17.3833 7.69676 17.29 7.79Z" fill="#0078AD"/>
</svg>
