<svg width="24" height="24" viewBox="0 0 24 24" fill="none" xmlns="http://www.w3.org/2000/svg">
<path d="M19.7 5.75041L12.7 3.13041C12.2486 2.96174 11.7514 2.96174 11.3 3.13041L4.3 5.75041C4.2201 5.78774 4.1432 5.83121 4.07 5.88041L12 8.93041L19.93 5.93041C19.8586 5.86396 19.7817 5.80374 19.7 5.75041ZM3 7.62041V16.3804C3.00071 16.7873 3.12554 17.1844 3.35783 17.5185C3.59011 17.8527 3.9188 18.108 4.3 18.2504L11 20.7604V10.6904L3 7.61041V7.62041ZM21 7.62041L13 10.7004V20.7604L19.7 18.2504C20.0812 18.108 20.4099 17.8527 20.6422 17.5185C20.8745 17.1844 20.9993 16.7873 21 16.3804V7.62041Z" fill="#0078AD"/>
</svg>
