<svg width="24" height="24" viewBox="0 0 24 24" fill="none" xmlns="http://www.w3.org/2000/svg">
<path d="M13.5701 21.0011C13.6627 20.7764 13.8024 20.5741 13.9798 20.4079C14.1572 20.2418 14.3681 20.1156 14.5984 20.0379C14.8287 19.9601 15.073 19.9327 15.3148 19.9574C15.5566 19.9821 15.7903 20.0584 16.0001 20.1811C16.2869 20.3506 16.617 20.4326 16.9498 20.4171C17.2826 20.4016 17.6036 20.2893 17.8733 20.0938C18.1431 19.8984 18.35 19.6284 18.4684 19.317C18.5869 19.0056 18.6118 18.6664 18.5401 18.3411C18.4864 18.1038 18.484 17.8578 18.533 17.6195C18.582 17.3812 18.6813 17.1561 18.8242 16.9592C18.9671 16.7623 19.1504 16.5982 19.3618 16.4778C19.5732 16.3575 19.8079 16.2836 20.0501 16.2611C20.3906 16.2426 20.7177 16.122 20.9888 15.9152C21.2599 15.7083 21.4626 15.4247 21.5704 15.1012C21.6783 14.7777 21.6863 14.4292 21.5935 14.1011C21.5007 13.7729 21.3114 13.4803 21.0501 13.2611C20.869 13.1007 20.724 12.9036 20.6247 12.6829C20.5254 12.4623 20.474 12.2231 20.474 11.9811C20.474 11.7391 20.5254 11.4999 20.6247 11.2793C20.724 11.0586 20.869 10.8616 21.0501 10.7011C21.3114 10.482 21.5007 10.1893 21.5935 9.86115C21.6863 9.533 21.6783 9.18452 21.5704 8.861C21.4626 8.53749 21.2599 8.25388 20.9888 8.04703C20.7177 7.84018 20.3906 7.71965 20.0501 7.70111C19.8079 7.67865 19.5732 7.60476 19.3618 7.48437C19.1504 7.36398 18.9671 7.19987 18.8242 7.003C18.6813 6.80612 18.582 6.58101 18.533 6.34271C18.484 6.10441 18.4864 5.8584 18.5401 5.62111C18.602 5.29873 18.5698 4.96535 18.4473 4.66079C18.3249 4.35622 18.1173 4.09334 17.8495 3.90354C17.5817 3.71374 17.2649 3.60504 16.9369 3.59042C16.609 3.5758 16.2838 3.65589 16.0001 3.82111C15.7903 3.9438 15.5566 4.02008 15.3148 4.04479C15.073 4.0695 14.8287 4.04207 14.5984 3.96436C14.3681 3.88664 14.1572 3.76045 13.9798 3.59428C13.8024 3.42812 13.6627 3.22584 13.5701 3.00111C13.4378 2.69454 13.2186 2.43342 12.9396 2.24996C12.6606 2.06651 12.334 1.96875 12.0001 1.96875C11.6662 1.96875 11.3396 2.06651 11.0606 2.24996C10.7816 2.43342 10.5624 2.69454 10.4301 3.00111C10.3375 3.22584 10.1979 3.42812 10.0205 3.59428C9.84308 3.76045 9.63212 3.88664 9.40182 3.96436C9.17152 4.04207 8.92723 4.0695 8.68543 4.04479C8.44363 4.02008 8.20994 3.9438 8.00013 3.82111C7.71333 3.65161 7.38326 3.56957 7.05048 3.58508C6.7177 3.60059 6.3967 3.71296 6.12691 3.9084C5.85711 4.10384 5.65029 4.37383 5.53183 4.6852C5.41338 4.99657 5.38845 5.33577 5.46013 5.66111C5.51373 5.89464 5.51765 6.13682 5.47165 6.37196C5.42564 6.60711 5.33074 6.82996 5.19308 7.02607C5.05543 7.22218 4.8781 7.38717 4.67259 7.51035C4.46707 7.63353 4.23797 7.71215 4.00013 7.74111C3.65961 7.75965 3.33255 7.88018 3.06142 8.08703C2.7903 8.29388 2.58766 8.57749 2.47982 8.901C2.37198 9.22452 2.36393 9.573 2.45672 9.90115C2.54951 10.2293 2.73884 10.522 3.00013 10.7411C3.18125 10.9016 3.32626 11.0986 3.42557 11.3193C3.52489 11.5399 3.57624 11.7791 3.57624 12.0211C3.57624 12.2631 3.52489 12.5023 3.42557 12.7229C3.32626 12.9436 3.18125 13.1407 3.00013 13.3011C2.73884 13.5203 2.54951 13.8129 2.45672 14.1411C2.36393 14.4692 2.37198 14.8177 2.47982 15.1412C2.58766 15.4647 2.7903 15.7483 3.06142 15.9552C3.33255 16.162 3.65961 16.2826 4.00013 16.3011C4.24237 16.3236 4.47704 16.3975 4.68845 16.5178C4.89986 16.6382 5.08315 16.8023 5.22607 16.9992C5.369 17.1961 5.46826 17.4212 5.51725 17.6595C5.56623 17.8978 5.56381 18.1438 5.51013 18.3811C5.45558 18.6966 5.4907 19.021 5.61148 19.3175C5.73226 19.6141 5.93386 19.8707 6.19333 20.0583C6.45279 20.2458 6.75971 20.3568 7.07913 20.3785C7.39855 20.4002 7.71766 20.3318 8.00013 20.1811C8.20805 20.0576 8.43994 19.9798 8.68031 19.9531C8.92068 19.9263 9.16398 19.9512 9.39398 20.0259C9.62399 20.1007 9.83539 20.2237 10.0141 20.3867C10.1927 20.5497 10.3346 20.7489 10.4301 20.9711C10.5595 21.279 10.7762 21.5422 11.0534 21.7284C11.3307 21.9145 11.6563 22.0154 11.9903 22.0186C12.3242 22.0218 12.6517 21.9271 12.9325 21.7463C13.2132 21.5655 13.4349 21.3064 13.5701 21.0011V21.0011ZM9.25013 8.00111C9.49735 8.00111 9.73903 8.07442 9.94459 8.21177C10.1502 8.34912 10.3104 8.54435 10.405 8.77275C10.4996 9.00116 10.5243 9.25249 10.4761 9.49497C10.4279 9.73745 10.3088 9.96018 10.134 10.135C9.95919 10.3098 9.73647 10.4289 9.49399 10.4771C9.25151 10.5253 9.00018 10.5006 8.77177 10.406C8.54336 10.3113 8.34814 10.1511 8.21079 9.94557C8.07344 9.74001 8.00013 9.49833 8.00013 9.25111C8.00013 8.91959 8.13182 8.60164 8.36624 8.36722C8.60066 8.1328 8.91861 8.00111 9.25013 8.00111ZM14.7501 16.0011C14.5029 16.0011 14.2612 15.9278 14.0557 15.7904C13.8501 15.6531 13.6899 15.4579 13.5953 15.2295C13.5007 15.0011 13.4759 14.7497 13.5241 14.5072C13.5724 14.2648 13.6914 14.042 13.8662 13.8672C14.0411 13.6924 14.2638 13.5734 14.5063 13.5251C14.7487 13.4769 15.0001 13.5016 15.2285 13.5963C15.4569 13.6909 15.6521 13.8511 15.7895 14.0566C15.9268 14.2622 16.0001 14.5039 16.0001 14.7511C16.0001 15.0826 15.8684 15.4006 15.634 15.635C15.3996 15.8694 15.0816 16.0011 14.7501 16.0011ZM15.7501 9.71111L9.75013 15.7111C9.65716 15.8048 9.54656 15.8792 9.4247 15.93C9.30284 15.9808 9.17214 16.0069 9.04013 16.0069C8.90811 16.0069 8.77741 15.9808 8.65555 15.93C8.53369 15.8792 8.42309 15.8048 8.33013 15.7111C8.2364 15.6181 8.162 15.5075 8.11123 15.3857C8.06047 15.2638 8.03433 15.1331 8.03433 15.0011C8.03433 14.8691 8.06047 14.7384 8.11123 14.6165C8.162 14.4947 8.2364 14.3841 8.33013 14.2911L14.3301 8.29111C14.5184 8.1028 14.7738 7.99701 15.0401 7.99701C15.3064 7.99701 15.5618 8.1028 15.7501 8.29111C15.9384 8.47941 16.0442 8.73481 16.0442 9.00111C16.0442 9.26741 15.9384 9.5228 15.7501 9.71111V9.71111Z" fill="#0078AD"/>
</svg>
