<svg width="20" height="20" viewBox="0 0 20 20" fill="none" xmlns="http://www.w3.org/2000/svg">
<path d="M10 0C8.02219 0 6.08879 0.58649 4.4443 1.6853C2.79981 2.78412 1.51809 4.3459 0.761209 6.17317C0.00433284 8.00043 -0.193701 10.0111 0.192152 11.9509C0.578004 13.8907 1.53041 15.6725 2.92894 17.0711C4.32746 18.4696 6.10929 19.422 8.0491 19.8079C9.98891 20.1937 11.9996 19.9957 13.8268 19.2388C15.6541 18.4819 17.2159 17.2002 18.3147 15.5557C19.4135 13.9112 20 11.9778 20 10C20 8.68678 19.7413 7.38642 19.2388 6.17317C18.7363 4.95991 17.9997 3.85752 17.0711 2.92893C16.1425 2.00035 15.0401 1.26375 13.8268 0.761205C12.6136 0.258658 11.3132 0 10 0ZM13.21 10.71L9.21 14.71C9.11704 14.8037 9.00644 14.8781 8.88458 14.9289C8.76272 14.9797 8.63202 15.0058 8.5 15.0058C8.36799 15.0058 8.23729 14.9797 8.11543 14.9289C7.99357 14.8781 7.88297 14.8037 7.79 14.71C7.69628 14.617 7.62188 14.5064 7.57111 14.3846C7.52034 14.2627 7.49421 14.132 7.49421 14C7.49421 13.868 7.52034 13.7373 7.57111 13.6154C7.62188 13.4936 7.69628 13.383 7.79 13.29L11.09 10L7.79 6.71C7.69677 6.61676 7.6228 6.50607 7.57234 6.38425C7.52188 6.26243 7.49591 6.13186 7.49591 6C7.49591 5.86814 7.52188 5.73757 7.57234 5.61575C7.6228 5.49393 7.69677 5.38324 7.79 5.29C7.88324 5.19676 7.99393 5.1228 8.11576 5.07234C8.23758 5.02188 8.36815 4.99591 8.5 4.99591C8.63186 4.99591 8.76243 5.02188 8.88425 5.07234C9.00608 5.1228 9.11677 5.19676 9.21 5.29L13.21 9.29C13.3037 9.38296 13.3781 9.49356 13.4289 9.61542C13.4797 9.73728 13.5058 9.86799 13.5058 10C13.5058 10.132 13.4797 10.2627 13.4289 10.3846C13.3781 10.5064 13.3037 10.617 13.21 10.71Z" fill="#0078AD"/>
</svg>
