<svg width="20" height="21" viewBox="0 0 20 21" fill="none" xmlns="http://www.w3.org/2000/svg">
<path d="M10 0.774414C8.02219 0.774414 6.08879 1.3609 4.4443 2.45972C2.79981 3.55853 1.51809 5.12032 0.761209 6.94758C0.00433284 8.77484 -0.193701 10.7855 0.192152 12.7253C0.578004 14.6651 1.53041 16.447 2.92894 17.8455C4.32746 19.244 6.10929 20.1964 8.0491 20.5823C9.98891 20.9681 11.9996 20.7701 13.8268 20.0132C15.6541 19.2563 17.2159 17.9746 18.3147 16.3301C19.4135 14.6856 20 12.7522 20 10.7744C20 9.46119 19.7413 8.16084 19.2388 6.94758C18.7363 5.73432 17.9997 4.63193 17.0711 3.70335C16.1425 2.77476 15.0401 2.03817 13.8268 1.53562C12.6136 1.03307 11.3132 0.774414 10 0.774414ZM12.21 14.0644C12.3037 14.1574 12.3781 14.268 12.4289 14.3898C12.4797 14.5117 12.5058 14.6424 12.5058 14.7744C12.5058 14.9064 12.4797 15.0371 12.4289 15.159C12.3781 15.2809 12.3037 15.3914 12.21 15.4844C12.117 15.5781 12.0064 15.6525 11.8846 15.7033C11.7627 15.7541 11.632 15.7802 11.5 15.7802C11.368 15.7802 11.2373 15.7541 11.1154 15.7033C10.9936 15.6525 10.883 15.5781 10.79 15.4844L6.79 11.4844C6.69628 11.3915 6.62188 11.2809 6.57111 11.159C6.52034 11.0371 6.49421 10.9064 6.49421 10.7744C6.49421 10.6424 6.52034 10.5117 6.57111 10.3898C6.62188 10.268 6.69628 10.1574 6.79 10.0644L10.79 6.06441C10.8832 5.97118 10.9939 5.89721 11.1158 5.84675C11.2376 5.79629 11.3681 5.77032 11.5 5.77032C11.6319 5.77032 11.7624 5.79629 11.8843 5.84675C12.0061 5.89721 12.1168 5.97118 12.21 6.06441C12.3032 6.15765 12.3772 6.26834 12.4277 6.39016C12.4781 6.51199 12.5041 6.64255 12.5041 6.77441C12.5041 6.90627 12.4781 7.03684 12.4277 7.15866C12.3772 7.28049 12.3032 7.39118 12.21 7.48441L8.91 10.7744L12.21 14.0644Z" fill="#0078AD"/>
</svg>
