<svg width="24" height="24" viewBox="0 0 24 24" fill="none" xmlns="http://www.w3.org/2000/svg">
<path d="M11.6631 5.82956L12.0001 6.13692L12.3371 5.82956C13.2348 5.01065 14.3954 4.53924 15.6098 4.5001C16.2552 4.49599 16.895 4.62049 17.4918 4.86634C18.0905 5.11294 18.6338 5.47667 19.0899 5.93616C19.546 6.39566 19.9057 6.94166 20.1479 7.5421C20.3901 8.14254 20.5098 8.78531 20.5002 9.43268L20.5001 9.43268V9.44015C20.5001 10.9797 19.9004 12.4838 18.7128 14.1372C17.5214 15.7958 15.7649 17.5686 13.5042 19.6398C13.5036 19.6403 13.503 19.6409 13.5024 19.6415L13.016 20.0781L13.016 20.0781L13.0126 20.0812C12.7361 20.3342 12.3749 20.4745 12.0001 20.4745C11.6256 20.4745 11.2647 20.3344 10.9883 20.0819C10.9881 20.0817 10.9878 20.0815 10.9876 20.0812L10.4983 19.6319L10.497 19.6307C8.23565 17.569 6.47875 15.8008 5.28736 14.1433C4.10011 12.4916 3.50011 10.9849 3.50011 9.44015H3.50017L3.50006 9.43268C3.49037 8.78531 3.61014 8.14254 3.85231 7.5421C4.09449 6.94166 4.4542 6.39566 4.91031 5.93617C5.36643 5.47667 5.90976 5.11294 6.50839 4.86634C7.10522 4.62048 7.74502 4.49599 8.39045 4.5001C9.60483 4.53924 10.7654 5.01065 11.6631 5.82956Z" stroke="black" stroke-opacity="0.65"/>
</svg>
